<svg version="1.1" id="Layer_1" xmlns="http://www.w3.org/2000/svg" xmlns:xlink="http://www.w3.org/1999/xlink" x="0px" y="0px"
	 width="100%" viewBox="0 0 880 880" enable-background="new 0 0 880 880" xml:space="preserve">
<path fill="#000000" opacity="1.000000" stroke="none" 
	d="
M608.089417,632.121460 
	C593.109985,643.828857 578.424561,655.336731 563.726562,666.828369 
	C561.095703,668.885315 558.378113,670.763672 555.058960,671.649902 
	C546.999207,673.801880 538.929504,668.041382 538.740051,659.453369 
	C538.262207,637.791016 539.468994,616.152588 540.330078,594.520020 
	C540.820190,582.207520 540.912598,569.888123 541.460999,557.572510 
	C542.675720,530.291443 543.000244,502.971588 543.799561,475.670807 
	C544.783875,442.049103 545.846985,408.429565 546.941772,374.811249 
	C547.792664,348.683899 548.739807,322.559692 549.658203,296.434570 
	C549.753296,293.730072 549.246521,291.307190 547.966248,288.797455 
	C544.055115,281.130646 549.179138,266.863647 556.917847,263.131287 
	C562.375916,260.498871 568.401917,261.473602 572.228821,266.450775 
	C574.522644,269.434021 576.994873,269.996124 580.372437,269.856812 
	C614.145935,268.464142 647.922974,267.156799 681.699951,265.849396 
	C692.515686,265.430786 703.333618,265.066315 714.151733,264.712311 
	C718.304810,264.576416 722.116699,265.627686 725.171265,268.569946 
	C732.166687,275.308289 728.953735,286.802490 719.210449,289.443237 
	C712.728638,291.200043 705.958069,290.652771 699.336609,290.934479 
	C667.721863,292.279541 636.092163,293.270630 604.468323,294.403687 
	C596.312683,294.695892 588.160889,295.211975 580.003967,295.296082 
	C576.251892,295.334778 575.318176,296.941803 574.992249,300.391266 
	C573.705627,314.011719 574.142761,327.685120 573.530029,341.326294 
	C572.244934,369.939117 571.972595,398.596191 571.142151,427.230988 
	C570.195923,459.857941 569.081299,492.479950 568.064758,525.104919 
	C567.079346,556.730652 566.079224,588.356140 565.216675,619.985291 
	C565.109192,623.926208 563.768616,627.851379 565.090149,633.133606 
	C644.278198,571.365967 722.924133,510.021210 802.410767,448.020721 
	C769.385437,427.281769 737.163330,407.047150 704.456665,386.508301 
	C700.881897,391.610718 697.445679,396.444397 694.082153,401.328094 
	C674.521484,429.729309 654.980164,458.143738 635.423218,486.547485 
	C634.195435,488.330566 632.967468,490.122833 631.607117,491.803650 
	C626.942139,497.567688 619.970398,498.931061 614.277832,495.263062 
	C608.525024,491.556244 606.756348,484.079712 610.732544,477.597473 
	C615.082947,470.505127 619.967712,463.737244 624.694519,456.879639 
	C646.722046,424.922150 668.768555,392.977753 690.835754,361.047638 
	C692.251831,358.998596 693.723389,356.934296 695.472290,355.179169 
	C700.235901,350.398712 706.958313,349.565308 712.359863,353.274902 
	C716.646423,356.218781 720.445496,359.908356 722.492615,364.749054 
	C723.825806,367.901611 725.886719,369.847504 728.644531,371.569672 
	C761.568237,392.129303 794.452332,412.752350 827.352783,433.349274 
	C832.583984,436.624237 837.229980,440.261841 837.325928,447.246582 
	C837.387939,451.758148 835.678528,455.403625 832.071289,458.014709 
	C806.558777,476.481995 782.221313,496.470215 757.342590,515.755920 
	C712.711121,550.353699 668.266663,585.192566 623.743896,619.930542 
	C618.622742,623.926270 613.500793,627.921143 608.089417,632.121460 
z"/>
<path fill="#000000" opacity="1.000000" stroke="none" 
	d="
M236.185303,272.870605 
	C237.901688,267.362946 242.012787,264.859222 246.433258,262.715637 
	C277.310577,247.742676 308.188995,232.771957 339.080444,217.828201 
	C377.770935,199.111603 416.474091,180.421204 455.172852,161.721695 
	C456.222778,161.214355 457.263245,160.678207 458.344360,160.246292 
	C464.923706,157.617828 471.138977,159.568268 473.800171,165.069794 
	C476.450012,170.547867 474.242004,176.865814 467.816559,180.077957 
	C452.323639,187.823090 436.666504,195.239700 421.074585,202.786728 
	C368.450562,228.258652 315.840363,253.759247 263.170532,279.136047 
	C259.558075,280.876556 257.870514,282.827850 258.205933,287.082550 
	C259.669983,305.654114 260.837128,324.249207 262.092896,342.837036 
	C262.530243,349.310486 263.122284,355.783936 263.237183,362.264618 
	C263.300995,365.864838 264.108246,367.590454 268.158905,367.945465 
	C288.037476,369.687592 307.883118,371.801605 327.749115,373.692780 
	C362.842468,377.033569 397.919678,380.362061 432.602448,387.059845 
	C454.792511,391.345093 477.144257,394.792786 499.421753,398.626251 
	C501.059265,398.908051 502.679535,399.288483 504.312653,399.597473 
	C509.379028,400.555939 513.578003,402.832886 515.074341,408.075684 
	C516.631775,413.532410 514.856445,418.189545 510.763000,422.096954 
	C490.514587,441.425018 470.294220,460.782471 450.079315,480.145599 
	C423.006866,506.077240 395.947998,532.023071 368.887390,557.967102 
	C368.308075,558.522583 367.778046,559.129456 367.623749,560.492920 
	C378.936432,556.326172 390.240692,552.136230 401.564545,548.000000 
	C410.479187,544.743835 419.379913,541.441956 428.362640,538.383057 
	C432.676575,536.914001 436.661499,538.158813 439.807861,541.393311 
	C442.765656,544.434082 443.137665,548.266785 441.934662,552.130127 
	C440.500488,556.735840 436.594147,558.693420 432.415344,560.234741 
	C417.730774,565.650940 403.051971,571.082703 388.373749,576.516235 
	C368.542084,583.857361 348.721710,591.229309 328.872620,598.523193 
	C326.152771,599.522705 323.844910,600.962585 321.753723,602.965576 
	C283.370392,639.730469 244.957413,676.464539 206.543961,713.198059 
	C204.739044,714.924072 202.984406,716.732300 201.009079,718.244568 
	C196.176620,721.944336 191.209717,722.139954 186.644104,719.023804 
	C182.827896,716.419189 180.921768,711.340637 182.367798,706.146423 
	C185.313034,695.566895 188.498322,685.053589 191.633514,674.527588 
	C196.004044,659.854004 200.549866,645.231140 204.761963,630.512512 
	C206.958267,622.837830 211.427567,618.059326 219.085861,615.307373 
	C248.078705,604.888855 276.912415,594.028198 305.841827,583.431641 
	C310.145905,581.855164 313.860687,579.685730 317.202362,576.477905 
	C363.960419,531.593994 410.791473,486.786163 457.615540,441.971008 
	C465.647980,434.283203 473.730286,426.647491 482.598419,418.219025 
	C473.064331,416.485229 464.637024,414.861847 456.177002,413.431732 
	C433.220642,409.551178 410.298218,405.427917 387.268402,402.039093 
	C372.634186,399.885620 357.838318,398.810760 343.104095,397.362061 
	C323.895569,395.473389 304.675934,393.697418 285.461823,391.865204 
	C276.684753,391.028259 267.923584,389.956970 259.129761,389.379089 
	C247.597366,388.621307 242.551331,384.018585 241.763123,372.384888 
	C239.974594,345.987091 238.403610,319.574463 236.568832,293.180023 
	C236.107056,286.537109 235.113861,279.936401 236.185303,272.870605 
M252.975708,626.590210 
	C245.325073,629.414368 237.678223,632.248779 230.020905,635.054688 
	C228.284775,635.690918 226.383591,636.193787 225.777817,638.185852 
	C222.315094,649.572510 218.921036,660.980042 215.503647,672.380432 
	C215.800095,672.558228 216.096527,672.735962 216.392975,672.913696 
	C233.977478,656.069641 251.561981,639.225586 269.146484,622.381470 
	C268.821014,621.954529 268.495544,621.527588 268.170074,621.100647 
	C263.350281,622.843628 258.530457,624.586670 252.975708,626.590210 
z"/>
</svg>